<?xml version="1.0" standalone="no"?>
<!DOCTYPE svg PUBLIC "-//W3C//DTD SVG 20010904//EN"
 "http://www.w3.org/TR/2001/REC-SVG-20010904/DTD/svg10.dtd">
<svg version="1.0" xmlns="http://www.w3.org/2000/svg"
 width="225.000000pt" height="225.000000pt" viewBox="0 0 225.000000 225.000000"
 preserveAspectRatio="xMidYMid meet">

<g transform="translate(0.000000,225.000000) scale(0.100000,-0.100000)"
fill="#000000" stroke="none">
<path d="M0 1125 l0 -1125 1125 0 1125 0 0 1125 0 1125 -1125 0 -1125 0 0
-1125z m1141 246 c23 -28 25 -69 4 -98 -13 -18 -12 -22 5 -38 19 -17 20 -17
20 2 0 31 36 70 76 83 46 15 106 0 129 -33 l15 -21 0 27 c0 23 4 27 30 27 21
0 30 -5 30 -17 0 -15 1 -15 18 0 27 25 62 22 62 -5 0 -20 1 -20 13 -5 19 27
71 37 102 21 15 -8 29 -14 31 -14 2 0 4 23 4 50 0 49 1 50 30 50 l30 0 0 -67
c0 -64 1 -66 15 -46 42 60 152 47 180 -21 29 -69 25 -75 -62 -78 -72 -3 -78
-5 -75 -23 7 -36 49 -47 76 -20 18 18 66 20 66 3 0 -7 -6 -20 -13 -29 -35 -46
-110 -52 -156 -13 -30 25 -31 25 -31 5 0 -17 -6 -21 -30 -21 -16 0 -30 5 -30
11 0 5 -10 3 -22 -5 -71 -50 -161 31 -142 128 5 31 4 36 -13 36 -34 0 -43 -21
-43 -97 l0 -73 -35 0 c-30 0 -35 3 -35 24 l0 24 -29 -29 c-23 -22 -39 -29 -70
-29 -38 0 -91 17 -91 29 0 3 -7 14 -14 24 -13 17 -16 16 -44 -13 -30 -29 -32
-30 -131 -30 l-101 0 0 156 0 156 106 -4 c97 -3 107 -5 125 -27z m-171 -318
c0 -15 1 -15 18 0 22 20 82 22 104 5 8 -7 20 -22 26 -33 10 -17 11 -17 12 -3
0 40 100 65 151 38 13 -8 19 -7 19 0 0 7 13 10 32 8 30 -3 32 -6 53 -83 l22
-80 24 80 c24 77 26 80 57 83 21 2 32 -1 32 -9 0 -10 3 -10 12 -1 7 7 33 12
59 12 40 0 51 -4 73 -31 14 -17 26 -36 26 -42 0 -7 3 -22 6 -34 6 -22 4 -23
-75 -23 -86 0 -100 -10 -65 -44 20 -20 48 -20 64 -1 14 16 70 21 70 6 0 -25
-47 -63 -85 -67 -50 -7 -105 27 -120 73 l-11 32 -17 -50 c-16 -45 -20 -49 -51
-49 -32 0 -33 2 -57 73 -26 77 -34 70 -27 -24 l3 -49 -32 0 c-18 0 -33 5 -33
10 0 6 -13 4 -30 -5 -37 -19 -60 -19 -88 1 -12 8 -22 10 -22 5 0 -6 -13 -11
-30 -11 l-30 0 0 74 c0 94 -5 106 -41 106 -37 0 -49 -28 -49 -116 l0 -64 -30
0 -30 0 0 115 0 115 30 0 c21 0 30 -5 30 -17z m800 -8 c0 -8 -4 -15 -10 -15
-5 0 -10 7 -10 15 0 8 5 15 10 15 6 0 10 -7 10 -15z"/>
<path d="M1013 1342 c-29 -3 -33 -7 -33 -33 0 -28 1 -29 49 -29 50 0 78 18 68
44 -6 15 -38 22 -84 18z"/>
<path d="M1240 1251 c-29 -55 5 -129 54 -117 36 9 51 49 36 99 -10 33 -14 37
-45 37 -24 0 -38 -6 -45 -19z"/>
<path d="M1590 1251 c-15 -29 -12 -87 6 -105 19 -20 35 -20 59 -2 23 17 27 85
6 110 -18 22 -58 20 -71 -3z"/>
<path d="M1800 1251 c-10 -20 -8 -21 35 -21 39 0 46 3 43 18 -5 27 -64 29 -78
3z"/>
<path d="M980 1180 l0 -40 43 0 c54 0 80 18 75 51 -3 22 -8 24 -60 27 l-58 3
0 -41z"/>
<path d="M1184 1005 c-4 -9 -19 -15 -35 -15 -25 0 -29 -4 -29 -27 0 -25 1 -25
18 -10 10 9 40 20 65 23 37 5 47 11 47 25 0 14 -7 19 -30 19 -18 0 -33 -6 -36
-15z"/>
<path d="M1550 1000 c-10 -19 -8 -20 35 -20 46 0 54 7 33 28 -19 19 -56 14
-68 -8z"/>
<path d="M1198 929 c-27 -15 -23 -49 5 -49 29 0 43 10 49 38 5 18 2 22 -15 22
-12 0 -30 -5 -39 -11z"/>
</g>
</svg>
