<?xml version="1.0" standalone="no"?>
<!DOCTYPE svg PUBLIC "-//W3C//DTD SVG 20010904//EN"
 "http://www.w3.org/TR/2001/REC-SVG-20010904/DTD/svg10.dtd">
<svg version="1.0" xmlns="http://www.w3.org/2000/svg"
 width="1080.000000pt" height="1080.000000pt" viewBox="0 0 1080.000000 1080.000000"
 preserveAspectRatio="xMidYMid meet">

<g transform="translate(0.000000,1080.000000) scale(0.100000,-0.100000)"
fill="#000000" stroke="none">
<path d="M4270 7560 c-11 -7 -2 -10 29 -10 48 0 51 4 11 13 -14 3 -32 2 -40
-3z"/>
<path d="M4370 7560 c0 -6 34 -10 81 -10 51 0 78 4 74 10 -3 6 -40 10 -81 10
-43 0 -74 -4 -74 -10z"/>
<path d="M4574 7558 c-13 -20 -73 -38 -131 -38 -49 0 -63 -3 -63 -15 0 -12 14
-15 69 -15 39 0 72 4 75 9 3 5 26 12 51 15 25 4 45 11 45 15 0 4 10 13 23 18
20 9 17 11 -21 14 -24 3 -45 1 -48 -3z"/>
<path d="M4040 7552 c-14 -1 -41 -5 -60 -9 l-35 -7 40 -6 40 -7 -32 -8 c-18
-4 -33 -11 -33 -16 0 -5 -10 -9 -22 -9 -30 0 -68 -11 -68 -19 0 -3 15 -12 33
-20 17 -8 35 -18 38 -23 3 -5 16 -10 29 -11 13 -1 25 -9 28 -19 3 -11 14 -18
28 -18 14 0 27 -7 30 -15 5 -12 31 -15 150 -15 l144 0 0 31 0 32 190 -5 c105
-2 190 -1 190 4 0 11 47 10 54 0 3 -5 -7 -15 -22 -23 -41 -21 -51 -34 -45 -57
4 -18 8 -20 27 -10 11 6 25 17 30 25 4 8 24 22 44 30 20 8 31 18 25 21 -8 5
-7 13 3 27 12 16 16 17 23 6 8 -12 18 -10 60 10 28 13 51 27 51 32 0 10 -28 9
-34 -2 -10 -15 -53 -18 -77 -5 -13 7 -28 9 -34 4 -20 -15 -108 -19 -122 -4
-19 18 -33 18 -33 -1 0 -8 -4 -15 -10 -15 -5 0 -10 5 -10 10 0 6 -16 10 -35
10 -19 0 -44 6 -55 12 -16 10 -24 10 -40 0 -24 -14 -150 -16 -150 -2 0 6 -9
10 -19 10 -11 0 -21 4 -23 9 -4 11 -34 15 -100 13 -79 -3 -55 -22 27 -22 43 0
75 -4 75 -10 0 -5 7 -10 15 -10 8 0 15 -4 15 -10 0 -6 -58 -10 -154 -10 -166
0 -171 2 -154 52 14 38 7 53 -22 50z m-15 -72 c-3 -5 -14 -10 -23 -10 -13 0
-13 -2 4 -15 10 -8 31 -15 47 -15 23 0 27 -4 27 -30 0 -37 -6 -37 -40 -1 -15
15 -38 31 -51 35 -13 3 -31 10 -39 16 -13 9 -13 11 0 20 20 13 83 13 75 0z"/>
<path d="M4123 7553 c20 -2 54 -2 75 0 20 2 3 4 -38 4 -41 0 -58 -2 -37 -4z"/>
<path d="M4677 7543 c6 -14 25 -15 63 -3 28 9 22 12 -31 14 -26 1 -35 -2 -32
-11z"/>
<path d="M4777 7544 c-9 -9 19 -34 37 -34 9 0 16 -3 16 -7 0 -5 27 -8 60 -8
33 0 60 3 60 8 0 4 -27 7 -60 7 -33 0 -60 4 -60 10 0 6 18 10 41 10 24 0 38 4
34 10 -7 11 -118 14 -128 4z"/>
<path d="M3867 7533 c-4 -3 -21 -6 -39 -6 -18 0 -24 -2 -14 -4 15 -4 16 -7 5
-15 -11 -8 -10 -9 4 -4 10 3 36 6 58 6 28 0 39 4 39 15 0 15 -40 21 -53 8z"/>
<path d="M3708 7523 c7 -3 16 -2 19 1 4 3 -2 6 -13 5 -11 0 -14 -3 -6 -6z"/>
<path d="M4973 7515 c-18 -20 -16 -30 2 -15 9 8 38 12 70 11 32 -1 55 3 55 9
0 16 -113 12 -127 -5z"/>
<path d="M4660 7500 c0 -5 9 -10 20 -10 11 0 20 5 20 10 0 6 -9 10 -20 10 -11
0 -20 -4 -20 -10z"/>
<path d="M4070 7485 c0 -10 10 -15 30 -15 20 0 30 5 30 15 0 10 -10 15 -30 15
-20 0 -30 -5 -30 -15z"/>
<path d="M4732 7491 c-10 -6 -6 -10 15 -14 33 -6 51 2 32 14 -18 11 -30 11
-47 0z"/>
<path d="M5008 7483 c6 -2 18 -2 25 0 6 3 1 5 -13 5 -14 0 -19 -2 -12 -5z"/>
<path d="M4363 7393 c3 -5 1 -18 -4 -30 -8 -22 -13 -23 -146 -23 -135 0 -137
-1 -105 -17 24 -12 36 -13 41 -5 4 6 17 9 29 5 18 -4 20 -8 11 -19 -6 -8 -15
-11 -20 -8 -23 14 -6 -32 21 -57 34 -33 40 -35 40 -14 0 8 -4 15 -10 15 -5 0
-10 6 -10 14 0 8 -6 16 -12 19 -9 3 -5 11 11 26 19 16 37 21 83 21 61 0 88 14
88 44 0 14 19 16 134 16 79 0 137 4 141 10 4 6 -47 10 -145 10 -83 0 -149 -3
-147 -7z"/>
<path d="M4660 7350 c0 -5 5 -10 10 -10 6 0 10 5 10 10 0 6 -4 10 -10 10 -5 0
-10 -4 -10 -10z"/>
<path d="M4373 7314 c-3 -9 -3 -54 0 -100 4 -51 2 -84 -3 -84 -6 0 -10 -11
-10 -25 0 -14 -4 -25 -10 -25 -5 0 -10 -15 -10 -34 0 -19 5 -38 10 -41 6 -3
10 -14 10 -23 0 -18 58 -72 78 -72 6 0 12 9 12 19 0 10 7 21 15 25 8 3 15 14
15 24 0 10 9 29 20 42 11 13 20 31 20 42 0 10 6 18 13 18 13 0 87 112 87 131
0 5 4 9 9 9 5 0 29 19 52 41 l43 42 -31 -7 c-26 -6 -34 -3 -45 13 -7 12 -16
21 -21 21 -4 0 -6 -4 -3 -9 10 -16 -6 -71 -20 -71 -12 0 -18 24 -17 68 1 14
-33 16 -42 2 -3 -5 -11 -10 -16 -10 -6 0 -7 5 -4 10 4 6 -22 10 -70 10 -60 0
-77 -3 -82 -16z m190 -100 c24 -22 26 -28 15 -42 -25 -34 -50 -54 -56 -47 -4
4 -1 10 6 12 14 5 16 33 2 33 -5 0 -10 16 -10 35 0 42 6 43 43 9z m-123 -184
c0 -5 -10 -10 -22 -10 -22 0 -22 -1 5 -24 33 -29 36 -51 5 -42 -13 3 -29 6
-35 6 -7 0 -13 9 -13 19 0 11 -6 21 -12 24 -10 3 -10 7 1 20 14 18 71 24 71 7z"/>
<path d="M5245 7200 c-3 -5 -26 -10 -50 -10 -24 0 -47 -4 -50 -10 -3 -5 -19
-10 -36 -10 -16 0 -29 -4 -29 -8 0 -4 -21 -14 -47 -22 -51 -15 -86 -33 -170
-87 -28 -18 -54 -33 -57 -33 -14 0 -186 -159 -186 -172 0 -4 -10 -18 -22 -31
-13 -13 -32 -36 -43 -52 -11 -16 -26 -34 -32 -41 -7 -7 -13 -20 -13 -28 0 -9
-4 -16 -8 -16 -14 0 -45 -73 -49 -115 -2 -22 -8 -51 -13 -65 -24 -64 -42 -176
-47 -295 -6 -131 1 -198 33 -325 9 -36 18 -87 21 -115 4 -47 39 -136 56 -143
4 -2 7 -8 7 -14 0 -23 112 -161 201 -248 38 -37 132 -100 149 -100 5 0 10 -4
10 -8 0 -10 77 -52 96 -52 8 0 14 -4 14 -10 0 -5 9 -10 20 -10 11 0 20 -4 20
-8 0 -8 16 -13 145 -45 97 -24 254 -38 300 -27 22 5 64 10 94 10 30 0 68 4 85
10 17 5 63 19 102 30 39 12 80 27 90 35 11 8 27 15 37 15 9 0 17 5 17 10 0 6
9 10 20 10 11 0 20 5 20 10 0 6 6 10 13 10 7 0 22 8 33 18 11 11 25 21 31 23
47 16 250 219 275 274 6 14 15 25 20 25 4 0 8 9 8 20 0 11 4 20 9 20 9 0 55
89 85 164 9 21 16 58 16 81 0 58 8 75 35 75 27 0 34 -14 42 -92 3 -32 10 -61
14 -64 5 -3 9 -18 9 -34 0 -16 5 -32 10 -35 6 -3 10 -16 10 -28 0 -12 15 -41
33 -63 28 -35 67 -108 111 -204 6 -14 16 -30 22 -37 6 -6 26 -35 44 -65 48
-76 143 -168 174 -168 25 0 86 54 86 77 0 6 3 13 8 15 9 4 62 91 87 145 11 24
23 43 28 43 4 0 7 8 7 18 0 10 13 33 30 52 16 19 29 39 30 44 1 24 53 76 75
76 30 0 75 -37 75 -61 0 -10 3 -19 8 -21 10 -4 38 -52 69 -118 53 -115 67
-139 100 -176 19 -22 44 -51 56 -66 39 -48 73 -39 152 41 37 38 81 89 96 113
16 23 32 48 36 53 35 46 119 220 163 340 12 33 26 69 30 80 12 30 26 74 40
125 30 108 66 204 82 214 13 8 23 8 35 0 16 -10 18 -32 20 -190 1 -98 7 -305
13 -460 10 -289 18 -344 55 -358 9 -3 76 -6 150 -6 102 0 135 3 144 14 9 11 9
34 1 97 -6 46 -13 86 -16 90 -8 14 -35 219 -44 344 -9 129 -7 987 3 1035 16
75 28 141 33 188 4 29 11 55 15 58 5 3 9 27 9 54 0 28 6 70 12 96 12 44 11 47
-11 65 -20 16 -40 19 -138 19 -63 0 -123 -5 -134 -10 -39 -21 -62 -97 -67
-220 -2 -63 -9 -123 -14 -132 -10 -20 -58 -24 -74 -8 -7 7 -64 10 -150 8
l-139 -3 2 -50 c1 -27 6 -115 12 -195 9 -145 1 -389 -17 -480 -5 -25 -15 -74
-22 -110 -14 -74 -42 -168 -64 -222 -21 -49 -79 -108 -106 -108 -33 0 -110 94
-110 135 0 8 -4 15 -10 15 -5 0 -10 13 -10 29 0 17 -4 33 -10 36 -5 3 -10 24
-10 46 0 21 -4 39 -9 39 -5 0 -12 24 -15 53 -3 28 -11 90 -17 137 -15 124 -19
460 -6 568 8 72 8 95 -2 105 -13 13 -235 17 -283 4 -33 -9 -35 -23 -25 -147
20 -256 7 -490 -38 -700 -37 -177 -118 -320 -181 -320 -33 0 -80 55 -94 109
-17 70 -53 185 -61 196 -7 10 -10 30 -29 170 -18 132 -24 479 -10 576 19 128
13 133 -190 134 -69 0 -132 -3 -141 -7 -23 -10 -49 -80 -49 -131 0 -59 -9 -87
-26 -80 -8 3 -14 11 -14 18 0 6 -9 22 -20 35 -11 13 -20 29 -20 37 0 7 -4 13
-10 13 -5 0 -10 6 -10 13 0 7 -16 31 -35 52 -20 21 -43 50 -52 64 -8 14 -40
46 -70 71 -31 25 -66 55 -79 68 -13 12 -28 22 -34 22 -5 0 -10 3 -10 8 0 4
-10 12 -23 18 -35 17 -92 49 -97 54 -14 14 -52 30 -70 30 -11 0 -20 5 -20 10
0 6 -11 10 -24 10 -14 0 -28 5 -31 10 -3 6 -19 10 -35 10 -16 0 -32 5 -35 10
-3 6 -24 10 -46 10 -21 0 -39 5 -39 10 0 6 -63 10 -169 10 -103 0 -172 -4
-176 -10z m384 -472 c20 -7 38 -15 41 -18 3 -3 26 -16 51 -28 73 -37 149 -106
179 -163 7 -13 21 -31 32 -40 10 -9 18 -23 18 -32 0 -9 5 -19 10 -22 6 -3 10
-16 10 -29 0 -12 5 -27 12 -34 15 -15 -102 -130 -159 -156 -59 -26 -206 -27
-253 -1 -51 29 -110 86 -110 106 0 10 -4 21 -10 24 -5 3 -10 17 -10 30 0 13
-4 27 -10 30 -5 3 -10 37 -10 75 0 38 5 72 10 75 6 3 10 17 10 31 0 13 5 24
10 24 6 0 10 7 10 16 0 9 20 36 45 60 25 23 45 47 45 53 0 15 35 14 79 -1z"/>
<path d="M4261 7173 c0 -5 4 -17 9 -28 8 -18 9 -17 9 8 1 15 -3 27 -9 27 -5 0
-10 -3 -9 -7z"/>
<path d="M4340 7165 c0 -8 2 -15 4 -15 2 0 6 7 10 15 3 8 1 15 -4 15 -6 0 -10
-7 -10 -15z"/>
<path d="M4298 7105 c2 -14 11 -25 18 -25 15 0 17 10 8 34 -10 27 -32 19 -26
-9z"/>
<path d="M3360 6724 c-63 -7 -174 -48 -210 -76 -19 -15 -38 -28 -42 -28 -8 0
-93 -83 -119 -116 -17 -21 -59 -101 -76 -144 -51 -123 -51 -282 -2 -407 31
-79 83 -160 133 -208 84 -81 177 -131 287 -155 52 -12 132 -10 234 5 63 10
120 36 200 91 59 42 155 147 155 172 0 6 5 12 10 12 6 0 10 7 10 15 0 8 5 15
10 15 6 0 10 9 10 20 0 11 4 20 9 20 5 0 11 15 14 33 3 17 10 52 17 77 21 82
2 271 -28 270 -4 0 -22 -20 -40 -45 -49 -65 -99 -85 -208 -85 -82 0 -96 3
-148 31 -48 26 -61 39 -81 83 -43 93 -57 148 -50 196 8 53 66 162 101 189 14
11 20 22 15 25 -13 8 -156 15 -201 10z"/>
<path d="M2505 5227 c-4 -10 -5 -21 -1 -24 10 -10 18 4 13 24 -4 17 -4 17 -12
0z"/>
<path d="M6286 5198 c-21 -21 -56 -52 -79 -70 -23 -18 -48 -38 -55 -45 -6 -6
-21 -15 -32 -18 -11 -3 -20 -11 -20 -16 0 -5 -11 -9 -24 -9 -14 0 -31 -7 -40
-15 -8 -8 -19 -15 -25 -15 -6 0 -15 -9 -21 -20 -6 -11 -19 -20 -30 -20 -10 0
-22 -4 -25 -10 -3 -5 -19 -10 -36 -10 -16 0 -29 -4 -29 -10 0 -5 -11 -10 -24
-10 -14 0 -28 -4 -31 -10 -3 -5 -22 -10 -41 -10 -19 0 -34 -4 -34 -9 0 -5 -19
-11 -42 -14 -177 -21 -254 -32 -258 -37 -3 -4 -13 -9 -23 -13 -23 -9 -18 -43
6 -39 18 3 24 -24 7 -30 -20 -6 -40 -143 -40 -275 0 -114 2 -132 15 -127 9 4
15 19 15 40 0 19 5 34 10 34 6 0 10 -20 10 -45 0 -25 -4 -45 -10 -45 -6 0 -10
-47 -10 -120 0 -76 4 -120 10 -120 6 0 13 7 16 15 7 16 44 21 44 6 0 -5 -11
-18 -25 -29 -31 -25 -34 -71 -5 -79 23 -6 25 -14 8 -31 -9 -9 -9 -15 0 -24 7
-7 12 -24 12 -39 0 -15 7 -29 15 -33 8 -3 15 -14 15 -25 0 -10 13 -45 30 -78
l29 -58 1 42 c0 24 -5 43 -12 46 -7 2 -10 8 -6 12 10 10 36 -17 39 -41 1 -10
-1 -36 -5 -56 -6 -29 -4 -41 9 -54 12 -12 19 -14 28 -5 14 14 37 15 37 1 0 -5
-7 -10 -15 -10 -25 0 -17 -36 15 -70 17 -18 30 -38 30 -46 0 -16 33 -35 52
-31 7 2 10 2 6 0 -14 -8 -8 -28 16 -55 23 -27 56 -38 56 -18 0 6 -4 10 -10 10
-5 0 -10 7 -10 15 0 8 -4 15 -10 15 -5 0 -10 7 -10 15 0 22 8 19 37 -15 24
-29 53 -40 53 -20 0 6 7 10 15 10 8 0 15 -4 15 -9 0 -5 -7 -11 -15 -15 -16 -6
-21 -36 -6 -36 5 0 13 -9 16 -20 4 -12 14 -19 23 -18 11 2 16 -3 14 -14 -2
-10 2 -18 8 -18 5 0 10 7 10 15 0 9 9 15 25 15 14 0 33 9 42 20 10 11 23 20
30 20 15 0 17 16 3 25 -13 8 -13 45 0 45 5 0 13 -8 19 -17 14 -26 25 -9 11 17
-14 27 -8 33 30 33 18 0 30 6 30 14 0 7 4 13 8 13 5 0 17 17 28 38 10 20 27
43 37 50 12 9 16 20 11 34 -5 17 -3 20 10 15 10 -4 16 -1 16 8 0 7 -9 17 -20
20 -21 7 -28 25 -10 25 6 0 10 -4 10 -10 0 -5 14 -10 30 -10 29 0 36 10 31 48
-1 6 5 12 14 12 13 0 15 6 10 30 -4 19 -3 30 4 30 6 0 11 -4 11 -10 0 -19 17
-10 28 15 16 34 15 45 -2 45 -8 0 -17 7 -20 16 -19 49 6 117 34 91 10 -10 11
-6 7 20 -4 19 -2 35 4 39 7 4 9 23 6 46 -4 27 -2 38 6 35 16 -5 21 -65 8 -81
-8 -10 -7 -21 4 -42 14 -26 15 -27 15 -6 0 12 5 22 10 22 6 0 10 5 10 11 0 5
-4 7 -10 4 -5 -3 -10 -1 -10 4 0 6 5 11 10 11 6 0 10 7 10 15 0 8 4 23 9 33 5
9 14 37 21 62 6 25 16 59 21 76 5 17 9 53 9 82 0 28 5 63 10 78 7 18 7 29 1
34 -7 4 -10 65 -8 162 1 108 -2 160 -10 170 -7 8 -13 31 -15 51 -1 20 -6 37
-10 37 -4 0 -8 9 -8 20 0 13 -6 20 -14 18 -8 -2 -15 2 -15 7 0 6 7 9 15 7 8
-2 14 1 14 5 -1 15 -25 40 -36 36 -6 -2 -17 3 -24 12 -19 22 2 44 25 25 12
-10 15 -10 15 3 0 9 -9 22 -20 30 -13 9 -18 20 -14 31 4 11 1 16 -10 16 -19 0
-22 16 -4 22 15 5 -15 72 -43 98 -9 8 -18 22 -21 30 -4 11 -14 6 -42 -22z m15
-46 c-11 -8 -21 -21 -21 -28 0 -8 -10 -14 -25 -14 -25 0 -24 2 17 41 27 25 44
36 47 28 2 -7 -6 -19 -18 -27z m49 -22 c0 -11 5 -20 10 -20 6 0 10 -9 10 -20
0 -25 -9 -25 -26 -2 -16 20 -18 62 -4 62 6 0 10 -9 10 -20z m-120 -45 c0 -8
10 -17 22 -21 19 -6 20 -7 4 -16 -13 -7 -22 -5 -35 6 -22 20 -31 20 -31 1 0
-17 -18 -19 -39 -6 -12 8 -9 11 12 16 14 4 29 15 32 25 7 21 35 16 35 -5z
m100 -5 c0 -5 -9 -10 -20 -10 -11 0 -20 5 -20 10 0 6 9 10 20 10 11 0 20 -4
20 -10z m44 -76 c-4 -17 -2 -29 6 -34 8 -5 10 -15 6 -26 -7 -19 -12 -14 -42
44 -9 18 3 42 21 42 12 0 14 -6 9 -26z m-340 -69 c-4 -8 -10 -15 -15 -15 -5 0
-9 7 -9 15 0 8 7 15 15 15 9 0 12 -6 9 -15z m-84 -25 c0 -5 -4 -10 -10 -10 -5
0 -10 5 -10 10 0 6 5 10 10 10 6 0 10 -4 10 -10z m450 -6 c0 -8 -4 -12 -10 -9
-5 3 -10 10 -10 16 0 5 5 9 10 9 6 0 10 -7 10 -16z m-493 0 c-3 -3 -12 -4 -19
-1 -8 3 -5 6 6 6 11 1 17 -2 13 -5z m-167 -34 c0 -5 -4 -10 -10 -10 -5 0 -10
5 -10 10 0 6 5 10 10 10 6 0 10 -4 10 -10z m-40 -30 c0 -15 -7 -20 -29 -20
-16 0 -37 3 -45 6 -15 6 -15 8 1 20 10 7 30 14 46 14 20 0 27 -5 27 -20z
m-110 -30 c0 -5 14 -10 30 -10 20 0 30 -5 30 -15 0 -10 11 -15 35 -15 19 0 35
-4 35 -10 0 -11 -99 -13 -116 -2 -6 4 -13 15 -17 25 -3 9 -17 17 -29 17 -13 0
-30 5 -38 10 -11 7 -4 10 28 10 23 0 42 -4 42 -10z m0 -714 c0 -16 -7 -27 -20
-31 -11 -3 -20 -13 -20 -21 0 -9 -11 -14 -36 -14 -28 0 -35 4 -32 17 2 10 17
22 33 28 17 5 37 17 45 27 21 24 30 22 30 -6z m0 -96 c0 -5 -4 -10 -10 -10 -5
0 -10 -9 -10 -20 0 -11 5 -20 10 -20 6 0 10 -9 10 -20 0 -13 -7 -20 -20 -20
-15 0 -20 -7 -21 -27 -1 -26 -1 -26 -9 5 -8 33 4 84 25 109 12 15 25 16 25 3z
m605 -110 c-6 -37 -5 -40 17 -41 18 -1 19 -2 4 -6 -27 -7 -38 10 -31 51 10 49
18 46 10 -4z m27 10 c3 -16 1 -30 -4 -30 -4 0 -8 14 -8 30 0 17 2 30 4 30 2 0
6 -13 8 -30z m36 -115 c-12 -26 -28 -34 -28 -14 0 9 27 37 37 39 2 0 -3 -11
-9 -25z m-48 -15 c0 -5 -5 -10 -11 -10 -5 0 -7 5 -4 10 3 6 8 10 11 10 2 0 4
-4 4 -10z m-22 -112 c4 -31 -11 -36 -34 -14 -22 23 -18 48 9 44 16 -2 23 -11
25 -30z m-485 -34 c11 -14 16 -28 12 -32 -4 -4 -10 -1 -12 6 -3 7 -11 19 -19
26 -15 16 -18 26 -6 26 4 0 15 -12 25 -26z m377 -54 c0 -11 5 -20 11 -20 5 0
7 -5 3 -11 -4 -7 -15 -2 -30 15 -29 31 -30 36 -4 36 13 0 20 -7 20 -20z m-225
-40 c3 -5 -1 -10 -10 -10 -9 0 -13 5 -10 10 3 6 8 10 10 10 2 0 7 -4 10 -10z"/>
<path d="M2540 5200 c0 -8 14 -26 30 -39 16 -13 27 -27 24 -33 -3 -5 -11 -4
-20 3 -10 8 -14 8 -14 0 0 -6 -4 -11 -10 -11 -5 0 -10 9 -10 20 0 27 -15 25
-27 -2 l-10 -23 -7 23 c-4 12 -14 22 -22 22 -16 0 -19 -16 -4 -25 16 -10 11
-26 -7 -23 -10 2 -17 -3 -15 -9 1 -7 -2 -13 -8 -13 -5 0 -10 -13 -10 -29 0
-16 -5 -31 -10 -33 -6 -2 -10 -48 -11 -111 0 -59 -5 -107 -10 -107 -5 0 -9
-13 -9 -30 0 -16 -4 -30 -10 -30 -5 0 -10 9 -10 20 0 11 -5 20 -10 20 -20 0
-22 -29 -4 -59 17 -30 17 -31 -4 -49 -14 -12 -21 -29 -20 -46 3 -36 32 -30 36
7 4 31 8 33 29 12 11 -12 12 -19 4 -29 -7 -8 -10 -25 -8 -38 2 -12 2 -17 0
-10 -12 34 -23 4 -23 -63 0 -43 4 -75 10 -75 6 0 10 -25 10 -55 0 -30 -4 -55
-10 -55 -5 0 -10 -7 -10 -15 0 -9 -6 -18 -14 -21 -20 -8 -7 -44 15 -44 11 0
19 5 19 10 0 6 5 10 10 10 6 0 10 -11 10 -25 0 -26 -15 -34 -23 -12 -9 25 -19
-3 -19 -55 1 -42 5 -57 23 -70 14 -12 19 -25 16 -38 -3 -11 1 -27 9 -34 11
-11 11 -16 1 -19 -9 -4 -9 -6 1 -6 6 -1 12 -8 12 -17 0 -27 32 -113 46 -125 8
-6 14 -19 14 -27 0 -18 45 -88 72 -113 10 -9 18 -21 18 -28 0 -6 7 -11 16 -11
9 0 18 -9 21 -20 3 -11 13 -20 23 -20 10 0 25 -3 34 -6 11 -4 16 -1 16 10 0 9
-6 16 -14 16 -8 0 -16 6 -19 13 -3 8 9 12 44 12 51 0 58 -6 37 -30 -7 -8 -19
-21 -25 -29 -7 -8 -21 -20 -30 -25 -15 -9 -16 -12 -4 -20 7 -5 11 -14 7 -20
-5 -7 -1 -9 9 -5 11 4 18 -3 26 -25 6 -17 15 -28 20 -25 5 3 9 1 9 -4 0 -6 9
-8 20 -5 16 4 20 0 20 -21 0 -29 37 -73 58 -68 7 2 12 -3 11 -10 -4 -32 1 -39
22 -33 15 5 19 4 15 -4 -14 -22 35 -11 62 15 15 14 38 30 52 36 15 6 20 12 13
15 -14 5 -18 43 -5 43 4 0 13 -9 20 -20 11 -17 16 -19 35 -9 31 17 38 31 24
48 -10 12 -8 13 14 9 22 -4 25 -2 21 14 -3 12 1 18 12 18 10 0 16 9 16 25 0
19 5 25 16 23 10 -2 19 2 21 9 2 6 -6 13 -18 15 l-21 3 20 25 c18 21 21 22 22
8 0 -10 5 -18 10 -18 14 0 12 37 -2 43 -7 3 2 3 20 0 26 -5 32 -2 32 13 0 9 5
32 12 50 11 30 10 35 -10 52 -28 24 -29 52 -2 52 11 0 19 -3 18 -7 -4 -14 13
-53 23 -53 5 0 9 8 9 17 0 9 8 25 17 35 17 19 17 21 0 50 -21 37 -23 108 -3
108 9 0 17 -15 21 -40 8 -47 25 -54 25 -10 0 17 5 30 10 30 6 0 10 5 10 10 0
6 -9 10 -20 10 -16 0 -20 7 -20 31 0 25 -3 29 -13 20 -8 -6 -17 -8 -20 -4 -13
12 -7 39 12 53 40 28 36 121 -8 174 -12 14 -13 20 -3 23 9 4 12 43 13 151 0
153 9 240 26 251 18 11 23 52 7 58 -8 3 -14 15 -13 27 3 38 -1 46 -18 46 -17
1 -17 1 0 14 27 21 21 26 -37 26 -29 0 -70 7 -89 15 -20 8 -48 15 -62 15 -14
0 -33 4 -43 9 -9 5 -37 15 -62 21 -45 13 -88 29 -144 56 -16 8 -35 14 -43 14
-7 0 -13 5 -13 10 0 6 -9 10 -20 10 -11 0 -20 4 -20 8 0 5 -12 15 -27 22 -16
8 -40 22 -54 32 -24 16 -26 16 -39 -3 -20 -27 -43 -25 -34 4 4 12 12 25 18 29
12 8 -29 48 -50 48 -7 0 -27 15 -43 33 -20 20 -31 26 -31 17z m87 -86 c-3 -3
-12 -4 -19 -1 -8 3 -5 6 6 6 11 1 17 -2 13 -5z m-101 -18 c16 -17 19 -46 4
-46 -5 0 -10 9 -10 20 0 11 -4 20 -10 20 -5 0 -10 5 -10 10 0 14 9 12 26 -4z
m64 -36 c12 -8 11 -10 -7 -10 -13 0 -23 5 -23 10 0 13 11 13 30 0z m140 -57
c0 -13 52 -33 82 -33 15 0 28 -4 28 -10 0 -5 -4 -10 -10 -10 -14 0 -12 -27 3
-33 9 -4 8 -8 -3 -16 -18 -13 -31 -13 -49 -2 -12 8 -11 12 3 27 17 17 17 18 0
31 -11 8 -31 12 -46 9 -25 -5 -28 -2 -28 19 0 14 5 25 10 25 6 0 10 -3 10 -7z
m174 -69 c9 -3 14 -10 11 -14 -6 -10 -55 0 -55 11 0 10 21 12 44 3z m319 -141
c-13 -2 -33 -2 -45 0 -13 2 -3 4 22 4 25 0 35 -2 23 -4z m111 -8 c3 -9 0 -15
-9 -15 -8 0 -15 7 -15 15 0 8 4 15 9 15 5 0 11 -7 15 -15z m-141 -32 c-7 -2
-19 -2 -25 0 -7 3 -2 5 12 5 14 0 19 -2 13 -5z m137 -40 c0 -22 -2 -25 -10
-13 -13 20 -13 40 0 40 6 0 10 -12 10 -27z m-790 -258 c0 -90 -4 -145 -10
-145 -6 0 -10 55 -10 145 0 90 4 145 10 145 6 0 10 -55 10 -145z m-143 3 c-3
-8 -6 -5 -6 6 -1 11 2 17 5 13 3 -3 4 -12 1 -19z m13 -158 c0 -5 -2 -10 -4
-10 -3 0 -8 5 -11 10 -3 6 -1 10 4 10 6 0 11 -4 11 -10z m110 -275 c0 -8 -4
-15 -10 -15 -5 0 -10 7 -10 15 0 8 5 15 10 15 6 0 10 -7 10 -15z m20 -45 c0
-5 -4 -10 -10 -10 -5 0 -10 5 -10 10 0 6 5 10 10 10 6 0 10 -4 10 -10z m-20
-51 c0 -12 5 -19 13 -16 6 2 11 11 9 21 -2 9 2 16 8 16 5 0 10 -11 10 -25 0
-14 -4 -25 -10 -25 -5 0 -10 -11 -10 -25 0 -14 6 -25 13 -25 8 0 7 -4 -3 -10
-8 -5 -19 -10 -25 -10 -5 0 -3 5 5 10 10 6 11 10 3 10 -7 0 -13 9 -13 21 0 11
-7 27 -15 35 -8 8 -12 21 -9 29 9 22 24 18 24 -6z m40 -139 c0 -16 -4 -30 -10
-30 -5 0 -10 14 -10 30 0 17 5 30 10 30 6 0 10 -13 10 -30z m680 -40 c0 -30
-13 -40 -25 -20 -8 13 4 50 16 50 5 0 9 -13 9 -30z m-60 -65 c0 -8 -4 -15 -10
-15 -5 0 -10 7 -10 15 0 8 5 15 10 15 6 0 10 -7 10 -15z m-470 -85 c0 -5 -4
-10 -10 -10 -5 0 -10 5 -10 10 0 6 5 10 10 10 6 0 10 -4 10 -10z m380 -65 c0
-16 -51 -54 -64 -49 -25 10 -19 22 14 29 17 4 30 11 30 16 0 5 5 9 10 9 6 0
10 -2 10 -5z m-250 -66 c0 -14 -17 -10 -23 5 -4 10 -1 13 9 9 7 -3 14 -9 14
-14z"/>
<path d="M2500 5174 c0 -8 5 -12 10 -9 6 4 8 11 5 16 -9 14 -15 11 -15 -7z"/>
<path d="M2368 4867 c-5 -25 0 -47 10 -47 10 0 12 59 3 65 -5 2 -11 -5 -13
-18z"/>
<path d="M3370 4852 c0 -4 9 -14 20 -22 20 -15 27 -40 11 -40 -5 0 -11 6 -14
13 -2 6 -8 9 -12 5 -9 -8 16 -98 27 -98 4 0 8 -9 8 -19 0 -11 5 -21 12 -23 8
-3 14 -39 16 -111 4 -91 2 -108 -12 -113 -13 -5 -16 -21 -16 -74 0 -67 0 -68
-30 -73 -21 -5 -30 -12 -30 -27 0 -11 5 -20 10 -20 6 0 10 -45 10 -115 0 -114
12 -151 26 -78 4 21 13 44 21 51 15 16 17 32 3 32 -15 0 -12 29 5 46 8 9 15
31 15 49 0 26 -3 33 -15 29 -9 -4 -15 0 -15 9 0 9 10 17 23 19 22 3 22 4 25
197 2 162 0 197 -13 211 -14 16 -16 25 -15 99 0 18 -5 40 -11 47 -12 15 -49
19 -49 6z"/>
<path d="M3712 4715 c6 -14 15 -25 20 -25 4 0 8 11 8 25 0 18 -5 25 -20 25
-17 0 -18 -3 -8 -25z"/>
<path d="M5112 4713 c-6 -16 -11 -22 -11 -15 -1 14 -41 17 -41 2 0 -5 7 -10
15 -10 16 0 20 -16 6 -24 -4 -3 -6 -17 -4 -31 3 -13 9 -22 14 -19 5 3 7 9 5
13 -3 4 4 17 14 29 11 12 20 28 20 36 0 8 5 18 10 21 15 9 12 25 -4 25 -8 0
-19 -12 -24 -27z"/>
<path d="M3770 4705 c0 -10 10 -15 34 -15 26 0 36 -5 41 -20 6 -19 34 -29 36
-12 10 65 13 62 -52 62 -46 0 -59 -3 -59 -15z"/>
<path d="M4980 4710 c0 -12 8 -12 35 0 18 8 17 9 -7 9 -16 1 -28 -3 -28 -9z"/>
<path d="M4910 4704 c0 -3 6 -12 14 -19 12 -12 15 -12 19 -1 3 8 3 17 0 20 -8
8 -33 8 -33 0z"/>
<path d="M4320 4680 c13 -23 20 -26 20 -6 0 8 -7 16 -15 20 -13 4 -14 2 -5
-14z"/>
<path d="M4430 4690 c30 -4 64 -3 75 1 12 5 -10 7 -55 7 l-75 -1 55 -7z"/>
<path d="M3740 4662 c0 -5 7 -17 15 -28 14 -18 14 -18 15 9 0 17 -5 27 -15 27
-8 0 -15 -4 -15 -8z"/>
<path d="M4400 4660 c0 -5 7 -10 15 -10 8 0 15 5 15 10 0 6 -7 10 -15 10 -8 0
-15 -4 -15 -10z"/>
<path d="M4490 4660 c0 -5 7 -10 15 -10 8 0 15 5 15 10 0 6 -7 10 -15 10 -8 0
-15 -4 -15 -10z"/>
<path d="M5023 4644 c2 -15 -2 -31 -10 -40 -9 -8 -12 -18 -9 -22 4 -3 11 -1
15 6 4 7 15 10 23 7 13 -5 16 2 16 34 1 35 -2 41 -20 41 -16 0 -19 -5 -15 -26z"/>
<path d="M4950 4644 c0 -8 5 -12 10 -9 6 4 8 11 5 16 -9 14 -15 11 -15 -7z"/>
<path d="M3363 4635 c-15 -17 -17 -45 -3 -45 6 0 10 -32 10 -75 0 -68 2 -75
20 -75 19 0 20 7 20 105 0 93 -2 105 -17 105 -10 -1 -24 -7 -30 -15z"/>
<path d="M4340 4636 c0 -8 5 -18 10 -21 6 -3 10 3 10 14 0 12 -4 21 -10 21 -5
0 -10 -6 -10 -14z"/>
<path d="M3825 4620 c27 -12 35 -12 35 0 0 6 -12 10 -27 9 -25 0 -26 -1 -8 -9z"/>
<path d="M4457 4615 c6 -17 25 -15 31 3 2 7 -5 12 -17 12 -14 0 -19 -5 -14
-15z"/>
<path d="M2330 4520 c0 -47 4 -80 10 -80 6 0 10 33 10 80 0 47 -4 80 -10 80
-6 0 -10 -33 -10 -80z"/>
<path d="M3762 4588 c5 -15 28 -23 28 -10 0 5 -7 13 -16 16 -10 4 -14 1 -12
-6z"/>
<path d="M4360 4590 c0 -5 5 -10 11 -10 5 0 7 5 4 10 -3 6 -8 10 -11 10 -2 0
-4 -4 -4 -10z"/>
<path d="M4435 4591 c-3 -5 -1 -12 5 -16 5 -3 10 1 10 9 0 18 -6 21 -15 7z"/>
<path d="M5051 4574 c-34 -28 -39 -49 -15 -58 23 -9 36 3 29 25 -4 13 -2 19 9
19 9 0 16 9 16 20 0 26 -2 25 -39 -6z"/>
<path d="M3810 4565 c0 -9 5 -15 11 -13 6 2 11 8 11 13 0 5 -5 11 -11 13 -6 2
-11 -4 -11 -13z"/>
<path d="M4450 4548 c-21 -23 -28 -68 -10 -68 6 0 10 9 10 20 0 11 4 20 9 20
5 0 11 11 13 25 6 31 4 31 -22 3z"/>
<path d="M3780 4545 c0 -11 5 -27 10 -35 8 -12 10 -12 10 5 0 11 -5 27 -10 35
-8 12 -10 12 -10 -5z"/>
<path d="M4400 4489 c0 -5 5 -7 10 -4 6 3 10 8 10 11 0 2 -4 4 -10 4 -5 0 -10
-5 -10 -11z"/>
<path d="M4421 4454 c0 -11 3 -14 6 -6 3 7 2 16 -1 19 -3 4 -6 -2 -5 -13z"/>
<path d="M2350 4389 c0 -17 4 -28 10 -24 6 3 10 17 10 31 0 13 -4 24 -10 24
-5 0 -10 -14 -10 -31z"/>
<path d="M4080 4050 c-21 -13 -11 -18 50 -21 47 -4 55 -1 58 15 3 15 0 17 -14
11 -23 -10 -44 -10 -64 -2 -8 4 -22 3 -30 -3z"/>
<path d="M4658 4023 c5 -36 22 -46 22 -13 0 18 7 20 87 20 112 0 98 14 -21 20
l-91 5 3 -32z"/>
<path d="M4030 4040 c-12 -8 -10 -10 8 -10 13 0 20 4 17 10 -7 12 -6 12 -25 0z"/>
<path d="M4150 3984 c0 -14 4 -23 10 -19 6 3 10 15 10 26 0 10 -4 19 -10 19
-5 0 -10 -12 -10 -26z"/>
<path d="M4691 3974 c0 -11 3 -14 6 -6 3 7 2 16 -1 19 -3 4 -6 -2 -5 -13z"/>
<path d="M4041 3960 c0 -8 6 -23 13 -32 14 -20 36 -24 36 -8 0 6 8 10 17 10
14 0 14 3 5 12 -10 10 -15 10 -22 -2 -7 -11 -12 -10 -29 11 -14 16 -20 19 -20
9z"/>
<path d="M4132 3930 c0 -14 2 -19 5 -12 2 6 2 18 0 25 -3 6 -5 1 -5 -13z"/>
<path d="M4755 3940 c3 -5 8 -10 11 -10 2 0 4 5 4 10 0 6 -5 10 -11 10 -5 0
-7 -4 -4 -10z"/>
<path d="M4720 3900 c0 -5 7 -10 15 -10 8 0 15 5 15 10 0 6 -7 10 -15 10 -8 0
-15 -4 -15 -10z"/>
</g>
</svg>
